<svg width="46" height="46" viewBox="0 0 46 46" fill="none" xmlns="http://www.w3.org/2000/svg">
<circle cx="23.1167" cy="22.6841" r="22.5" fill="#3A86FF"/>
<path d="M31.7533 21.9165L18.8105 13.8749C18.7015 13.8071 18.5767 13.7701 18.4489 13.7677C18.3212 13.7653 18.1951 13.7975 18.0837 13.861C17.9723 13.9246 17.8795 14.0171 17.8149 14.1292C17.7503 14.2413 17.7163 14.3688 17.7163 14.4987V30.5819C17.7163 30.7118 17.7503 30.8394 17.8149 30.9514C17.8795 31.0635 17.9723 31.1561 18.0837 31.2196C18.1951 31.2832 18.3212 31.3154 18.4489 31.3129C18.5767 31.3105 18.7015 31.2735 18.8105 31.2058L31.7533 23.1642C31.8584 23.0989 31.9453 23.0072 32.0056 22.898C32.0658 22.7887 32.0975 22.6656 32.0975 22.5403C32.0975 22.4151 32.0658 22.2919 32.0056 22.1827C31.9453 22.0734 31.8584 21.9818 31.7533 21.9165Z" fill="white"/>
</svg>
